<svg width="131" height="39" viewBox="0 0 131 39" fill="none" xmlns="http://www.w3.org/2000/svg">
                    <path d="M23.5918 0L18.0879 8.11634V0H15.2455L9.32819 8.7318V0H6.89924L0 10.1679V28.0033H2.42895L7.17056 21.0281V33.3501H10.0129L14.3282 26.9904V38.6969H17.584L26.8605 25.0414V0H23.5918Z" fill="#F76918"></path>
                    <path fill-rule="evenodd" clip-rule="evenodd" d="M41.8646 22.0319L37.0872 8.18408H32.7617V25.3143H35.499V11.1844L40.2506 25.1476H43.3882L48.1785 11.1588V25.3143H50.9159V8.18408H46.642L41.8646 22.0319ZM61.6199 25.3143H64.3055L64.2926 13.1847H61.607V19.788C61.607 21.9806 60.5482 23.3525 58.5856 23.3525C56.9458 23.3525 56.1323 22.4294 56.1323 20.5573V13.1847H53.4466V20.9035C53.4466 23.8654 55.1639 25.6605 57.9658 25.6605C59.5152 25.6605 60.8064 25.122 61.6199 23.8398V25.3143ZM69.3541 8.18409H66.6684V25.3143H69.3541V8.18409ZM75.5647 13.1847V8.62004L72.879 10.6203V13.1847H70.7098V15.4926H72.879V21.737C72.879 24.5194 74.3252 25.6092 76.9721 25.6092C77.3724 25.6092 78.4441 25.5195 78.8443 25.3528V22.9935C78.4441 23.0961 77.7468 23.1859 77.3724 23.1859C76.1457 23.1859 75.5647 22.8781 75.5647 21.3908V15.4926H79.0251V13.1847H75.5647ZM83.299 25.3143H80.6133V13.1975H83.299V25.3143ZM80.4971 8.18409H83.4023V11.0049H80.4971V8.18409ZM95.8494 19.2495C95.8494 21.5575 94.287 23.2115 91.9887 23.2115C89.7808 23.2115 88.1539 21.6216 88.1539 19.2495C88.1539 16.8774 89.6904 15.1977 91.9887 15.1977C94.287 15.1977 95.8494 16.9415 95.8494 19.2495ZM88.2442 30.3277L88.2184 23.8013C89.1739 24.9168 90.5296 25.6605 92.4793 25.6605C96.1334 25.6605 98.6383 22.9038 98.6383 19.2495C98.6383 15.5952 96.1592 12.7744 92.4793 12.7744C90.6329 12.7744 89.1997 13.5052 88.2442 14.6208V13.1975H85.5586V30.3277H88.2442ZM102.951 8.18409H100.265V25.3143H102.951V8.18409ZM105.327 25.3143H108.012V13.1975H105.327V25.3143ZM108.103 8.18409H105.198V11.0049H108.103V8.18409ZM118.561 18.134C118.561 16.262 117.464 15.0311 115.592 15.0311C114.004 15.0311 112.712 16.0312 112.39 18.134H118.561ZM121.467 19.0187C121.467 19.3649 121.441 19.6726 121.389 20.0958H112.351C112.635 22.4037 114.016 23.4038 115.863 23.4038C117.567 23.4038 118.665 22.7243 119.323 21.2369L121.26 22.9551C120.111 24.8014 118.032 25.6605 115.785 25.6605C111.951 25.6605 109.51 23.032 109.51 19.2751C109.51 15.5183 112.08 12.7744 115.617 12.7744C119.168 12.7744 121.467 15.3131 121.467 19.0187ZM125.857 15.108V13.1975H123.171V25.3143H125.844V19.4675C125.844 16.7877 127.135 15.5311 129.007 15.5311C129.524 15.5311 129.924 15.5952 130.389 15.7363V13.0821C130.014 12.9411 129.743 12.9154 129.317 12.9154C128.194 12.9154 126.748 13.3642 125.857 15.108Z" fill="#F76918"></path>
                </svg>